<?xml version="1.0" encoding="utf-8"?>
<!-- Generator: Adobe Illustrator 17.0.0, SVG Export Plug-In . SVG Version: 6.00 Build 0)  -->
<!DOCTYPE svg PUBLIC "-//W3C//DTD SVG 1.1//EN" "http://www.w3.org/Graphics/SVG/1.1/DTD/svg11.dtd">
<svg version="1.1" id="Layer_1" xmlns="http://www.w3.org/2000/svg" xmlns:xlink="http://www.w3.org/1999/xlink" x="0px" y="0px"
	 width="500px" height="124px" viewBox="0 0 500 124" enable-background="new 0 0 500 124" xml:space="preserve">
<g enable-background="new    ">
	<path fill="#212121" d="M178.153,89.305h15.383v7.692h-7.691v7.691h-38.459v-7.691h-7.692V50.846h38.459V27.771h-38.459V20.08
		h53.842v38.459h-38.459v38.458h23.076V89.305z M247.379,112.38h-15.383v-46.15h-7.692v46.15H208.92V12.387h15.384v46.151h7.692
		V12.387h15.383V112.38z"/>
	<path fill="#212121" d="M294.299,104.688h-23.075v-7.691h15.383v-7.692h7.692V27.771h-30.768V20.08h46.151v69.225h-7.692v7.692
		h-7.691V104.688z M317.374,58.539h15.384V12.387h15.384v99.993h-15.384v-46.15h-15.384V58.539z M371.217,112.38h-15.384V12.387
		h15.384V112.38z"/>
	<path fill="#212121" d="M425.827,89.305h15.384v7.692h-7.691v7.691h-38.459v-7.691h-7.692V20.08h53.843v7.691h-38.459v69.226
		h23.075V89.305z M448.903,58.539h23.075V12.387h15.384v99.993h-15.384v-46.15h-23.075V58.539z"/>
</g>
<image overflow="visible" width="72" height="72" xlink:href="3.png"  transform="matrix(1.7153 0 0 1.7153 4.3333 0.5)">
</image>
</svg>
